<?xml version="1.0" encoding="UTF-8"?>
<svg version="1.1" xmlns="http://www.w3.org/2000/svg" width="492" height="507">
<path d="M0 0 C6.44580149 3.80742018 11.85254127 9.43795515 14.05078125 16.71875 C16.62705291 29.80172958 11.97854738 40.90769669 7.5 53 C6.95353537 54.50618719 6.40791395 56.01268067 5.86328125 57.51953125 C4.43254691 61.45251743 2.97149704 65.37379539 1.50732422 69.29443359 C-5.57220702 88.30930639 -12.47391222 107.39184246 -19.41470337 126.4576416 C-20.29334043 128.87079606 -21.17237815 131.28380469 -22.05184937 133.69665527 C-26.56160766 146.07118496 -31.06676367 158.4442813 -35.33184814 170.90579224 C-35.59068787 171.65601654 -35.84952759 172.40624084 -36.11621094 173.17919922 C-36.44730865 174.14803543 -36.44730865 174.14803543 -36.78509521 175.13644409 C-37.56384325 177.16642141 -38.49942494 179.07094985 -39.5 181 C-38.93748535 181.11069824 -38.3749707 181.22139648 -37.79541016 181.33544922 C-35.15717055 182.09925354 -33.13620281 183.23132964 -30.7734375 184.6328125 C-29.83653076 185.18453125 -28.89962402 185.73625 -27.93432617 186.3046875 C-26.41995972 187.20574219 -26.41995972 187.20574219 -24.875 188.125 C-22.71259993 189.3990493 -20.54982599 190.67246422 -18.38671875 191.9453125 C-16.69748291 192.94159668 -16.69748291 192.94159668 -14.97412109 193.95800781 C-9.23134814 197.33887136 -3.45929609 200.66899241 2.3125 204 C3.3658252 204.6098877 4.41915039 205.21977539 5.50439453 205.84814453 C12.11675563 209.66575235 18.77941698 213.37631075 25.5 217 C22.95111681 207.50884665 19.89867924 198.40777987 16.3125 189.25 C15.33054917 186.71169015 14.35519555 184.17089554 13.3828125 181.62890625 C13.01765785 180.67453423 13.01765785 180.67453423 12.64512634 179.70088196 C9.7816978 172.1739315 7.16921738 164.56173457 4.58569336 156.93481445 C3.00891487 152.29402353 1.41306534 147.68489012 -0.42578125 143.140625 C-0.71541748 142.4185083 -1.00505371 141.6963916 -1.3034668 140.95239258 C-2.05219591 139.11605932 -2.82558431 137.28982949 -3.6015625 135.46484375 C-6.20018998 125.44318038 -1.0906665 115.59664074 2.375 106.3125 C2.96240521 104.71737143 3.54890111 103.12190774 4.13452148 101.52612305 C5.33023295 98.27203371 6.53140691 95.02004009 7.73681641 91.76953125 C9.39970331 87.28031616 11.03759184 82.78235606 12.66796875 78.28125 C13.40030888 76.2640647 14.13306073 74.24702959 14.86602783 72.23007202 C15.54364157 70.36442225 16.21983917 68.49825833 16.89599609 66.63208008 C19.20886213 60.30854889 21.64839244 54.10122927 24.5 48 C27.38760938 49.44380469 27.56294255 51.60048989 28.55444336 54.52075195 C28.82522705 55.33890381 29.09601074 56.15705566 29.375 57 C29.99643313 58.82759457 30.62031526 60.65435749 31.24609375 62.48046875 C31.59784668 63.5070459 31.94959961 64.53362305 32.31201172 65.59130859 C34.36216905 71.4738192 36.51219913 77.31982334 38.65332031 83.16970825 C42.81457335 94.54044229 46.89981161 105.93101154 50.84570312 117.37866211 C52.85717565 123.1985437 54.9531726 128.97678196 57.14428711 134.73120117 C59.49196834 140.91612149 61.71134631 147.14548768 63.9375 153.375 C66.54588928 160.66720106 69.20847936 167.92532751 72.0625 175.125 C74.62833055 181.61197233 76.9822142 188.15311435 79.25 194.75 C82.30080837 203.61925286 85.45421662 212.44558298 88.6875 221.25 C89.14012207 222.48258545 89.59274414 223.7151709 90.05908203 224.98510742 C92.70316656 232.17166884 95.37493786 239.34766198 98.05859375 246.51953125 C98.65801181 248.1240037 99.25737736 249.72849577 99.85668945 251.33300781 C101.01610151 254.43692805 102.18074096 257.53881829 103.34838867 260.63964844 C103.88087371 262.06308481 104.41319008 263.48658428 104.9453125 264.91015625 C105.18958481 265.55467239 105.43385712 266.19918854 105.68553162 266.86323547 C108.99199246 275.74478647 110.01340656 284.81208827 106.6015625 293.8359375 C102.64783373 301.60319188 95.71907606 307.26030798 87.5 310 C75.32048443 311.65232589 67.73193362 307.95325241 57.5 302 C56.03566586 301.16967354 54.57081138 300.34026414 53.10546875 299.51171875 C49.09298373 297.22471425 45.10844627 294.89244427 41.12939453 292.54785156 C36.40695893 289.76788483 31.671191 287.01074162 26.9375 284.25 C25.93251465 283.66323486 24.9275293 283.07646973 23.89208984 282.47192383 C13.21876111 276.24342706 2.51248992 270.07242509 -8.19580078 263.90429688 C-11.52614252 261.98493338 -14.85509148 260.06317647 -18.18359375 258.140625 C-31.60190146 250.39097206 -45.03753017 242.67269671 -58.5 235 C-62.16983741 243.42166638 -65.30492648 251.97014929 -68.23468018 260.66912842 C-68.95244758 262.79425599 -69.6787023 264.91630301 -70.40771484 267.03759766 C-72.38040558 272.77792554 -74.34982636 278.51771729 -76.23046875 284.2890625 C-79.56119417 294.23947771 -84.26677303 302.56410252 -93.875 307.5625 C-101.77317695 310.69453569 -109.59454499 311.3702144 -117.75 308.5 C-124.50246812 305.44453536 -130.3802929 299.75936539 -133.5 293 C-136.09323712 285.62974715 -136.07010534 279.73023567 -133.5 272.375 C-133.28069824 271.74166748 -133.06139648 271.10833496 -132.83544922 270.45581055 C-130.59547648 264.0762281 -128.16869252 257.76123263 -125.70703125 251.46435547 C-123.41771442 245.56795147 -121.30785492 239.61925905 -119.234375 233.64453125 C-115.85103033 223.90673095 -112.27381916 214.24860827 -108.64794922 204.59893799 C-103.40572431 190.63979387 -98.25563846 176.6674888 -93.45410156 162.54980469 C-90.96824978 155.26551298 -88.31356411 148.06119869 -85.5 140.89697266 C-83.30523256 135.26802542 -81.29233786 129.58468975 -79.30859375 123.87890625 C-74.43714152 109.87548588 -69.31603545 95.96384823 -64.2019043 82.04760742 C-63.35059003 79.72971322 -62.49943593 77.41176018 -61.6484375 75.09375 C-61.22321304 73.9358345 -60.79798859 72.77791901 -60.35987854 71.58491516 C-57.78702632 64.562556 -55.25542388 57.52695227 -52.75987244 50.47676086 C-51.16990627 45.98937462 -49.5645316 41.50757503 -47.95767212 37.0262146 C-47.20141119 34.90390761 -46.45253857 32.77895162 -45.71151733 30.65127563 C-37.56839829 7.28909337 -37.56839829 7.28909337 -25.9375 -0.0625 C-17.83283935 -3.64653329 -8.08294696 -3.62254025 0 0 Z " fill="#467DFD" transform="translate(261.5,86)"/>
<path d="M0 0 C1.03633049 3.10899146 1.03451033 4.84279147 0.75 8.0625 C0.68296875 8.94035156 0.6159375 9.81820313 0.546875 10.72265625 C0 13 0 13 -3 15 C-5.18717146 18.48327307 -6 20.5384416 -6 24.6875 C-6 28 -6 28 -7.4375 29.6875 C-7.953125 30.120625 -8.46875 30.55375 -9 31 C-9.36162029 32.32594105 -9.69728039 33.65938457 -10 35 C-10.66 35.66 -11.32 36.32 -12 37 C-12.24287489 39.44012949 -12.24287489 39.44012949 -12.125 42.125 C-12.10695312 43.03507812 -12.08890625 43.94515625 -12.0703125 44.8828125 C-12.04710937 45.58148438 -12.02390625 46.28015625 -12 47 C-11.34 47.33 -10.68 47.66 -10 48 C-10 48.66 -10 49.32 -10 50 C-9.34 50 -8.68 50 -8 50 C-7.375 51.8125 -7.375 51.8125 -7 54 C-7.66 54.99 -8.32 55.98 -9 57 C-7.906875 57.309375 -6.81375 57.61875 -5.6875 57.9375 C-3.44592006 58.58337897 -1.2130649 59.2623117 1 60 C1.37125 60.99 1.7425 61.98 2.125 63 C3.62221144 66.10251864 3.62221144 66.10251864 5.9453125 66.65234375 C13.00402669 67.52571008 19.33957779 66.43673983 26 64 C26 62.68 26 61.36 26 60 C26.99 60 27.98 60 29 60 C29 59.34 29 58.68 29 58 C30.32 58.33 31.64 58.66 33 59 C34.40270656 54.91891938 34.40270656 54.91891938 35.5 50.75 C36 49 36 49 38 47 C37.67 46.34 37.34 45.68 37 45 C37.46664062 44.6184375 37.93328125 44.236875 38.4140625 43.84375 C40.45742785 41.46821196 40.7548484 39.5604884 41.375 36.5 C42.80370365 30.23509629 45.14329259 24.73599749 48 19 C48.33 19 48.66 19 49 19 C49.35360338 25.86126553 48.43929172 30.65749699 45.75 36.9375 C45.09753086 38.51817741 44.44518609 40.09890617 43.79296875 41.6796875 C43.4789209 42.42702148 43.16487305 43.17435547 42.84130859 43.94433594 C41.81547379 46.45087367 40.9487965 49.00387028 40.0625 51.5625 C37.26746055 58.44900144 32.31721755 64.10577996 25.6875 67.5 C17.78782307 70.7134279 9.93074003 71.37911316 1.75 68.5 C-5.00246812 65.44453536 -10.8802929 59.75936539 -14 53 C-16.59323712 45.62974715 -16.57010534 39.73023567 -14 32.375 C-13.78359863 31.75399414 -13.56719727 31.13298828 -13.34423828 30.49316406 C-12.57856971 28.32280633 -11.79077609 26.16133441 -11 24 C-10.67870117 23.11151367 -10.35740234 22.22302734 -10.02636719 21.30761719 C-8.98833354 18.4503291 -7.93474984 15.59929973 -6.875 12.75 C-6.53855469 11.8326709 -6.20210937 10.9153418 -5.85546875 9.97021484 C-5.52933594 9.1086377 -5.20320312 8.24706055 -4.8671875 7.359375 C-4.57956543 6.59077148 -4.29194336 5.82216797 -3.99560547 5.03027344 C-2.94243471 2.88261086 -1.77889111 1.57858534 0 0 Z " fill="#127E9E" transform="translate(142,326)"/>
<path d="M0 0 C1.29867527 4.19997109 0.40970021 6.84509413 -1 11 C-1.5259375 11.99 -1.5259375 11.99 -2.0625 13 C-3.42320209 15.90283112 -3.63515502 18.83801021 -4 22 C-4.99 22.33 -5.98 22.66 -7 23 C-7.144375 23.721875 -7.28875 24.44375 -7.4375 25.1875 C-7.80533123 27.02665615 -8.20015613 28.86067137 -8.625 30.6875 C-9.23427015 33.01864219 -9.23427015 33.01864219 -8 35 C-8.7115625 35.804375 -8.7115625 35.804375 -9.4375 36.625 C-11.28186076 39.42842836 -11.62456847 41.69620258 -12 45 C-11.34 45.33 -10.68 45.66 -10 46 C-10.763125 46.680625 -11.52625 47.36125 -12.3125 48.0625 C-18.28141236 54.58666002 -20.33810285 64.30701903 -22.4375 72.75 C-23.56797882 77.03864187 -24.98409931 79.68250924 -28 83 C-28.87822312 85.08533633 -28.87822312 85.08533633 -29 87 C-28.67 87.66 -28.34 88.32 -28 89 C-28.70703125 91.20703125 -28.70703125 91.20703125 -29.8125 93.8125 C-30.16957031 94.66457031 -30.52664062 95.51664062 -30.89453125 96.39453125 C-31.25933594 97.25433594 -31.62414062 98.11414063 -32 99 C-33.10547666 101.68986017 -34.07514787 104.26301754 -34.875 107.0625 C-36.09058102 110.23651711 -37.45635098 111.79550418 -40 114 C-41 112 -41 112 -40.3984375 109.88720703 C-40.06070313 109.01950684 -39.72296875 108.15180664 -39.375 107.2578125 C-38.99730469 106.27167969 -38.61960938 105.28554687 -38.23046875 104.26953125 C-37.82441406 103.23183594 -37.41835937 102.19414062 -37 101.125 C-34.1342905 93.72930298 -31.38604653 86.31263375 -28.78515625 78.8203125 C-24.87164155 67.55388586 -20.78538948 56.35243776 -16.68383789 45.15332031 C-15.43413397 41.74080852 -14.18663226 38.32749774 -12.93945312 34.9140625 C-8.67707687 23.25674693 -4.38836017 11.61052823 0 0 Z " fill="#2481C1" transform="translate(211,131)"/>
<path d="M0 0 C1.87672086 2.81508129 2.94506118 5.2189169 4.12890625 8.3671875 C4.52400391 9.41777344 4.91910156 10.46835937 5.32617188 11.55078125 C5.9381543 13.19626953 5.9381543 13.19626953 6.5625 14.875 C6.97435547 15.96425781 7.38621094 17.05351562 7.81054688 18.17578125 C8.20435547 19.22894531 8.59816406 20.28210938 9.00390625 21.3671875 C9.54253296 22.80747314 9.54253296 22.80747314 10.09204102 24.27685547 C12.783619 32.34941821 13.1356421 40.8112223 10.1015625 48.8359375 C6.14783373 56.60319188 -0.78092394 62.26030798 -9 65 C-11.28932678 65.12093495 -13.58251324 65.17538326 -15.875 65.1875 C-17.08929688 65.20167969 -18.30359375 65.21585937 -19.5546875 65.23046875 C-22.84344421 65.01047255 -25.05365948 64.41715618 -28 63 C-28 62.67 -28 62.34 -28 62 C-20.74 62 -13.48 62 -6 62 C-5.67 61.01 -5.34 60.02 -5 59 C-4.01 58.690625 -3.02 58.38125 -2 58.0625 C-1.01 57.711875 -0.02 57.36125 1 57 C1.96877057 54.96756452 1.96877057 54.96756452 2 53 C2.99 53 3.98 53 5 53 C5.309375 51.865625 5.61875 50.73125 5.9375 49.5625 C7 46 7 46 8 45 C8.23701239 42.14122091 8.42219182 39.30116703 8.5625 36.4375 C8.62727539 35.22803711 8.62727539 35.22803711 8.69335938 33.99414062 C8.79975262 31.99631195 8.90040888 29.9981793 9 28 C8.34 28 7.68 28 7 28 C5.15696124 24.7048701 4.29081193 21.48040102 3.4375 17.8125 C2.82785116 14.09972503 2.82785116 14.09972503 1 11 C0.76636119 9.15108054 0.58696365 7.29511969 0.4375 5.4375 C0.31181641 3.91962891 0.31181641 3.91962891 0.18359375 2.37109375 C0.12300781 1.58863281 0.06242187 0.80617188 0 0 Z " fill="#5A2FAC" transform="translate(358,331)"/>
<path d="M0 0 C0.33 0 0.66 0 1 0 C1.35360338 6.86126553 0.43929172 11.65749699 -2.25 17.9375 C-2.90246914 19.51817741 -3.55481391 21.09890617 -4.20703125 22.6796875 C-4.5210791 23.42702148 -4.83512695 24.17435547 -5.15869141 24.94433594 C-6.18452621 27.45087367 -7.0512035 30.00387028 -7.9375 32.5625 C-10.73253945 39.44900144 -15.68278245 45.10577996 -22.3125 48.5 C-26.98959532 50.40254725 -30.16650139 51.11648923 -35.1875 51.0625 C-36.81751953 51.04896484 -36.81751953 51.04896484 -38.48046875 51.03515625 C-39.31191406 51.02355469 -40.14335937 51.01195312 -41 51 C-41 50.67 -41 50.34 -41 50 C-39.72125 49.9175 -38.4425 49.835 -37.125 49.75 C-31.65949199 49.16782347 -26.98184622 47.23611052 -22 45 C-22 43.68 -22 42.36 -22 41 C-21.01 41 -20.02 41 -19 41 C-19 40.34 -19 39.68 -19 39 C-17.68 39.33 -16.36 39.66 -15 40 C-13.59729344 35.91891938 -13.59729344 35.91891938 -12.5 31.75 C-12 30 -12 30 -10 28 C-10.33 27.34 -10.66 26.68 -11 26 C-10.53335938 25.6184375 -10.06671875 25.236875 -9.5859375 24.84375 C-7.54257215 22.46821196 -7.2451516 20.5604884 -6.625 17.5 C-5.19629635 11.23509629 -2.85670741 5.73599749 0 0 Z " fill="#1E6FA7" transform="translate(190,345)"/>
<path d="M0 0 C0.33 0 0.66 0 1 0 C1.30029389 5.80568182 0.84824075 8.83097049 -2 14 C-3.0872426 16.97277594 -4.05364539 19.97971933 -5 23 C-5.66 23 -6.32 23 -7 23 C-6.95875 24.175625 -6.9175 25.35125 -6.875 26.5625 C-6.8858612 32.69907871 -8.34530168 37.1270689 -12 42 C-12.33 43.155 -12.66 44.31 -13 45.5 C-13.95434082 48.84019288 -14.94809467 50.32360175 -17 53 C-17.71433121 55.64934822 -17.71433121 55.64934822 -18 58 C-18.33 58 -18.66 58 -19 58 C-18.48970403 51.78962188 -17.42326137 46.51957648 -15.234375 40.703125 C-14.95909973 39.94763367 -14.68382446 39.19214233 -14.40020752 38.41375732 C-13.52616665 36.02227838 -12.63828943 33.63621777 -11.75 31.25 C-11.16967338 29.66699614 -10.59023979 28.08366461 -10.01171875 26.5 C-6.76291249 17.63245863 -3.42312978 8.80177611 0 0 Z " fill="#3944A2" transform="translate(276,160)"/>
<path d="M0 0 C2.56583239 2.56583239 3.16262762 4.87736978 4.35546875 8.30859375 C4.57810898 8.94306931 4.80074921 9.57754486 5.03013611 10.23124695 C5.75443038 12.2982306 6.47095499 14.3678187 7.1875 16.4375 C8.17603222 19.26775267 9.16818968 22.09673077 10.16015625 24.92578125 C10.40425232 25.62374817 10.64834839 26.32171509 10.89984131 27.04083252 C13.17002644 33.51990156 15.54114935 39.95965794 17.98120117 46.37670898 C19.30187475 49.89449184 20.40718253 53.28404658 21 57 C19 56 19 56 18 53 C17.34 52.67 16.68 52.34 16 52 C15.54296875 50.03125 15.54296875 50.03125 15.1875 47.5 C14.33605913 42.74274308 12.69977966 39.39101926 10.23046875 35.28515625 C8.52876159 32.12484294 7.63679905 28.88411805 6.68359375 25.4375 C5.6753342 21.84233453 4.44105465 18.44600026 3 15 C2.34 14.67 1.68 14.34 1 14 C-0.14242743 9.31604754 -0.08252495 4.78644729 0 0 Z " fill="#4C2C9C" transform="translate(337,274)"/>
<path d="M0 0 C2.31 0.33 4.62 0.66 7 1 C7 1.66 7 2.32 7 3 C8.65 2.67 10.3 2.34 12 2 C12 2.66 12 3.32 12 4 C13.65 4 15.3 4 17 4 C17.33 5.32 17.66 6.64 18 8 C18.66 8 19.32 8 20 8 C20.7425 8.78375 21.485 9.5675 22.25 10.375 C25.14826662 13.14152723 27.169531 14.02011258 31 15 C31 15.66 31 16.32 31 17 C31.99 17.33 32.98 17.66 34 18 C34 18.66 34 19.32 34 20 C29.70643363 18.70570063 26.1055466 17.05615947 22.26953125 14.7421875 C21.21958984 14.11699219 20.16964844 13.49179687 19.08789062 12.84765625 C16.89224451 11.52529336 14.69693552 10.20237056 12.50195312 8.87890625 C11.45587891 8.25628906 10.40980469 7.63367188 9.33203125 6.9921875 C8.38046143 6.41839355 7.4288916 5.84459961 6.44848633 5.25341797 C4.0133715 3.77216068 4.0133715 3.77216068 1 4 C0.34 5.98 -0.32 7.96 -1 10 C-1.33 10 -1.66 10 -2 10 C-2 7.69 -2 5.38 -2 3 C-1.34 3 -0.68 3 0 3 C0 2.01 0 1.02 0 0 Z " fill="#2A79CB" transform="translate(201,318)"/>
<path d="M0 0 C0.66 1.32 1.32 2.64 2 4 C3.65 4 5.3 4 7 4 C6.34 5.65 5.68 7.3 5 9 C6.093125 9.309375 7.18625 9.61875 8.3125 9.9375 C10.55407994 10.58337897 12.7869351 11.2623117 15 12 C15.37125 12.99 15.7425 13.98 16.125 15 C17.62221144 18.10251864 17.62221144 18.10251864 19.9453125 18.65234375 C24.77864832 19.25036666 29.23442906 18.91255614 34 18 C29.85373454 21.72176686 26.40888763 21.50045663 21.03515625 21.34375 C13.13534372 20.44904794 8.02313795 15.88690506 3 10 C0.41635217 6.49957391 -0.37269405 4.34809723 0 0 Z " fill="#158BB3" transform="translate(128,374)"/>
<path d="M0 0 C0.66 0 1.32 0 2 0 C5 5.75 5 5.75 5 8 C5.99 8.33 6.98 8.66 8 9 C7.25 11.9375 7.25 11.9375 6 15 C3.875 15.875 3.875 15.875 2 16 C2 15.34 2 14.68 2 14 C0.68 13.67 -0.64 13.34 -2 13 C-2 12.34 -2 11.68 -2 11 C-5.63 11 -9.26 11 -13 11 C-13 8.69 -13 6.38 -13 4 C-7.8145525 5.99943381 -2.95538366 8.48927228 2 11 C1.34 7.37 0.68 3.74 0 0 Z " fill="#464ABA" transform="translate(285,292)"/>
<path d="M0 0 C1.32 0.99 2.64 1.98 4 3 C3.360625 3.680625 2.72125 4.36125 2.0625 5.0625 C-0.35420635 8.5044757 -0.48470709 10.87765674 -1 15 C-1.95939668 16.69036558 -2.96642853 18.35394174 -4 20 C-4.99383076 22.55028473 -5.93320401 25.11276293 -6.83984375 27.6953125 C-8.17363596 30.34493338 -9.60670631 31.31635806 -12 33 C-9.90541559 25.70296406 -7.4851001 18.56508103 -4.875 11.4375 C-4.51535156 10.44169922 -4.15570313 9.44589844 -3.78515625 8.41992188 C-3.26888672 7.00356445 -3.26888672 7.00356445 -2.7421875 5.55859375 C-2.4313623 4.70579834 -2.12053711 3.85300293 -1.80029297 2.97436523 C-1 1 -1 1 0 0 Z " fill="#2E71C2" transform="translate(224,97)"/>
<path d="M0 0 C4.25002885 3.68335834 5.60432461 7.27592715 6.40625 12.796875 C6.73024219 23.00262906 3.54957731 31.58728159 0 41 C-0.33 41 -0.66 41 -1 41 C-1 38.03 -1 35.06 -1 32 C-0.34 32 0.32 32 1 32 C1 30.35 1 28.7 1 27 C1.33 27 1.66 27 2 27 C2.33 20.4 2.66 13.8 3 7 C2.01 6.67 1.02 6.34 0 6 C0 4.02 0 2.04 0 0 Z " fill="#4858C7" transform="translate(270,95)"/>
<path d="M0 0 C0.33 0 0.66 0 1 0 C1.29551757 8.57000965 -1.07082525 14.48497645 -5 22 C-4.34 22.33 -3.68 22.66 -3 23 C-3.45375 23.391875 -3.9075 23.78375 -4.375 24.1875 C-6.27642919 26.30832487 -7.06204028 28.33042235 -8 31 C-8.66 31 -9.32 31 -10 31 C-10.66 33.31 -11.32 35.62 -12 38 C-13.39741196 33.80776412 -11.77645202 30.99543976 -10.25390625 27.05078125 C-9.96394272 26.27816452 -9.67397919 25.50554779 -9.37522888 24.70951843 C-8.44631262 22.24047507 -7.50459768 19.77654006 -6.5625 17.3125 C-5.9307922 15.64029422 -5.29992219 13.96777169 -4.66992188 12.29492188 C-3.12298198 8.19287466 -1.56454551 4.09536293 0 0 Z " fill="#1C7FAF" transform="translate(162,266)"/>
<path d="M0 0 C1.29867527 4.19997109 0.40970021 6.84509413 -1 11 C-1.350625 11.66 -1.70125 12.32 -2.0625 13 C-3.42320209 15.90283112 -3.63515502 18.83801021 -4 22 C-4.99 22.33 -5.98 22.66 -7 23 C-7.144375 23.721875 -7.28875 24.44375 -7.4375 25.1875 C-7.80533123 27.02665615 -8.20015613 28.86067137 -8.625 30.6875 C-9.23427015 33.01864219 -9.23427015 33.01864219 -8 35 C-10.475 37.475 -10.475 37.475 -13 40 C-14 38 -14 38 -12.82836914 34.28466797 C-12.23847035 32.68426329 -11.64011911 31.08695885 -11.03515625 29.4921875 C-10.72299667 28.65156769 -10.4108371 27.81094788 -10.08921814 26.94485474 C-9.08743489 24.25218417 -8.0751054 21.56361713 -7.0625 18.875 C-6.38276691 17.05364525 -5.70372138 15.23203374 -5.02539062 13.41015625 C-3.35823336 8.93708234 -1.68160526 4.46766133 0 0 Z " fill="#1F62A2" transform="translate(211,131)"/>
<path d="M0 0 C1 2 1 2 -0.07983398 5.53173828 C-0.62744454 7.0474406 -1.18347205 8.56011792 -1.74609375 10.0703125 C-2.03605728 10.86654022 -2.32602081 11.66276794 -2.62477112 12.48312378 C-3.55525086 15.03307745 -4.49623624 17.57900977 -5.4375 20.125 C-6.06905354 21.85000643 -6.69992193 23.57526387 -7.33007812 25.30078125 C-8.87877467 29.53681097 -10.43690582 33.76926296 -12 38 C-13.23922223 34.28233332 -12.57018942 32.56110463 -11.5625 28.8125 C-11.27503906 27.72582031 -10.98757812 26.63914063 -10.69140625 25.51953125 C-10.46324219 24.68808594 -10.23507813 23.85664063 -10 23 C-9.34 23 -8.68 23 -8 23 C-8 21.02 -8 19.04 -8 17 C-7.34 17 -6.68 17 -6 17 C-6.04125 15.906875 -6.0825 14.81375 -6.125 13.6875 C-6 10 -6 10 -4 7 C-3.67 5.96875 -3.34 4.9375 -3 3.875 C-2 1 -2 1 0 0 Z " fill="#2B58A4" transform="translate(241,210)"/>
<path d="M0 0 C0.66 0.33 1.32 0.66 2 1 C0.89173528 5.43305888 -0.29199877 8.3893317 -3 12 C-3.33 13.155 -3.66 14.31 -4 15.5 C-4.95434082 18.84019288 -5.94809467 20.32360175 -8 23 C-8.71433121 25.64934822 -8.71433121 25.64934822 -9 28 C-9.33 28 -9.66 28 -10 28 C-9.48689806 17.90899508 -6.21215502 8.05279354 0 0 Z " fill="#3C59C1" transform="translate(267,190)"/>
<path d="M0 0 C1.03633049 3.10899146 1.03451033 4.84279147 0.75 8.0625 C0.68296875 8.94035156 0.6159375 9.81820313 0.546875 10.72265625 C0 13 0 13 -3 15 C-4.19232613 17.05003955 -4.19232613 17.05003955 -5 19 C-5.33 19 -5.66 19 -6 19 C-6.55428226 12.34861284 -5.69455091 7.62272894 -2 2 C-1.34 1.34 -0.68 0.68 0 0 Z " fill="#169BC6" transform="translate(142,326)"/>
<path d="M0 0 C3.22648528 4.83972792 4.90280243 10.38930224 6.90551758 15.82397461 C7.68487328 17.93040055 8.47985575 20.03049975 9.27539062 22.13085938 C9.77180946 23.47099299 10.2672842 24.81147678 10.76171875 26.15234375 C11.21506592 27.36913818 11.66841309 28.58593262 12.13549805 29.83959961 C12.96099413 32.8574044 13.15721744 34.15706863 12 37 C9.92960074 33.8944011 9.1460974 31.44462148 8.125 27.875 C6.65951331 22.94413314 4.96789747 18.33729514 2.734375 13.70703125 C2 12 2 12 2 10 C1.34 10 0.68 10 0 10 C0 6.7 0 3.4 0 0 Z " fill="#312B86" transform="translate(294,155)"/>
<path d="M0 0 C0 1.32 0 2.64 0 4 C3.3 4.99 6.6 5.98 10 7 C10 7.66 10 8.32 10 9 C11.32 9.33 12.64 9.66 14 10 C14 10.99 14 11.98 14 13 C8.84313143 11.53005148 4.65471168 9.21589873 0.125 6.4375 C-0.56335938 6.02564453 -1.25171875 5.61378906 -1.9609375 5.18945312 C-3.66089447 4.15902286 -5.33337722 3.08351684 -7 2 C-7 1.67 -7 1.34 -7 1 C-2.25 0 -2.25 0 0 0 Z " fill="#5039AE" transform="translate(316,380)"/>
<path d="M0 0 C3.1875 -0.3125 3.1875 -0.3125 7 0 C9.5625 2.375 9.5625 2.375 12 5 C15.16701423 6.33563611 15.16701423 6.33563611 18 7 C18 7.66 18 8.32 18 9 C18.99 9.33 19.98 9.66 21 10 C21 10.66 21 11.32 21 12 C15.84313143 10.53005148 11.65471168 8.21589873 7.125 5.4375 C6.43664062 5.02564453 5.74828125 4.61378906 5.0390625 4.18945312 C3.33910553 3.15902286 1.66662278 2.08351684 0 1 C0 0.67 0 0.34 0 0 Z " fill="#2A66B5" transform="translate(214,326)"/>
<path d="M0 0 C2 2 2 2 3 5 C3.66 5.33 4.32 5.66 5 6 C6.72718916 10.12606298 7.2120464 13.54702569 7 18 C7.66 18 8.32 18 9 18 C9.33 19.65 9.66 21.3 10 23 C10.33 23 10.66 23 11 23 C11 25.31 11 27.62 11 30 C8.59571164 27.59571164 7.98679862 25.63675319 6.8359375 22.44140625 C6.23652344 20.77948242 6.23652344 20.77948242 5.625 19.08398438 C5.00625 17.34084961 5.00625 17.34084961 4.375 15.5625 C3.95476562 14.40427734 3.53453125 13.24605469 3.1015625 12.05273438 C0 3.38749239 0 3.38749239 0 0 Z " fill="#32469F" transform="translate(258,218)"/>
<path d="M0 0 C0.66 0.33 1.32 0.66 2 1 C2 3.75 2 3.75 1 7 C-4.24408591 10.77433089 -9.8170813 12.13099913 -16.1875 12.0625 C-17.81751953 12.04896484 -17.81751953 12.04896484 -19.48046875 12.03515625 C-20.31191406 12.02355469 -21.14335937 12.01195312 -22 12 C-22 11.67 -22 11.34 -22 11 C-20.72125 10.9175 -19.4425 10.835 -18.125 10.75 C-12.65949199 10.16782347 -7.98184622 8.23611052 -3 6 C-3 4.68 -3 3.36 -3 2 C-2.01 2 -1.02 2 0 2 C0 1.34 0 0.68 0 0 Z " fill="#22A0DE" transform="translate(171,384)"/>
<path d="M0 0 C2.60868369 1.30434185 2.62929776 2.24467044 3.54296875 4.96484375 C3.81173828 5.76470703 4.08050781 6.56457031 4.35742188 7.38867188 C4.63134766 8.22978516 4.90527344 9.07089844 5.1875 9.9375 C5.47302734 10.77474609 5.75855469 11.61199219 6.05273438 12.47460938 C6.31763672 13.27576172 6.58253906 14.07691406 6.85546875 14.90234375 C7.09934326 15.63960693 7.34321777 16.37687012 7.59448242 17.13647461 C8 19 8 19 7 21 C2.86217076 16.72424312 1.94055703 12.68046944 1 7 C-0.98 7.99 -0.98 7.99 -3 9 C-2.01 6.03 -1.02 3.06 0 0 Z " fill="#35388C" transform="translate(286,134)"/>
<path d="M0 0 C0.66 0 1.32 0 2 0 C2.309375 0.969375 2.61875 1.93875 2.9375 2.9375 C4.60872283 6.08969718 4.60872283 6.08969718 6.95703125 6.65625 C11.78636058 7.24860385 16.23875978 6.91172685 21 6 C17.66136323 9.057065 15.40589432 9.36074088 10.9375 9.25 C9.37322266 9.22679687 9.37322266 9.22679687 7.77734375 9.203125 C5 9 5 9 2 8 C1.3125 5.9375 1.3125 5.9375 1 4 C0.34 4 -0.32 4 -1 4 C-0.67 2.68 -0.34 1.36 0 0 Z " fill="#23AADD" transform="translate(141,386)"/>
<path d="M0 0 C1.16640975 2.7569685 1.03695421 3.89837593 0 6.75 C-2.55703111 10.90517555 -5.56784274 14.53264113 -9 18 C-9.33 18 -9.66 18 -10 18 C-10 16.35 -10 14.7 -10 13 C-9.01 13 -8.02 13 -7 13 C-5.87119943 9.68885166 -4.78697325 6.41021743 -4 3 C-2.68 2.67 -1.36 2.34 0 2 C0 1.34 0 0.68 0 0 Z " fill="#207AAF" transform="translate(182,372)"/>
<path d="M0 0 C0.66 0.66 1.32 1.32 2 2 C-3.94 2 -9.88 2 -16 2 C-16 2.66 -16 3.32 -16 4 C-16.99 4 -17.98 4 -19 4 C-19 5.32 -19 6.64 -19 8 C-21.31 7.67 -23.62 7.34 -26 7 C-19.02803192 -1.08748297 -9.97578607 -0.92882168 0 0 Z " fill="#2B55A8" transform="translate(256,84)"/>
<path d="M0 0 C2.81379388 2.81379388 3.81213054 6.21813533 5.1875 9.875 C5.47302734 10.59558594 5.75855469 11.31617188 6.05273438 12.05859375 C7.47811319 15.82492317 8.24642663 18.15902534 7 22 C6.071875 20.824375 6.071875 20.824375 5.125 19.625 C3.10141339 17.03162353 3.10141339 17.03162353 1 15 C0.83984375 13.046875 0.83984375 13.046875 0.9375 10.75 C1.02747096 7.03719821 0.74950569 3.65384024 0 0 Z " fill="#5033AA" transform="translate(329,252)"/>
<path d="M0 0 C1.15699511 3.47098534 0.82954442 4.14733125 -0.43359375 7.44921875 C-0.75263672 8.29677734 -1.07167969 9.14433594 -1.40039062 10.01757812 C-1.91375977 11.33918945 -1.91375977 11.33918945 -2.4375 12.6875 C-2.77587891 13.58017578 -3.11425781 14.47285156 -3.46289062 15.39257812 C-4.30037307 17.59834174 -5.14632974 19.80046176 -6 22 C-6.33 22 -6.66 22 -7 22 C-7.19294408 17.17639811 -6.75747614 13.50353262 -5 9 C-4.34 9 -3.68 9 -3 9 C-3 7.02 -3 5.04 -3 3 C-2.01 2.67 -1.02 2.34 0 2 C0 1.34 0 0.68 0 0 Z " fill="#2E4EA1" transform="translate(254,174)"/>
<path d="M0 0 C0.99 1.485 0.99 1.485 2 3 C1.01 3.495 1.01 3.495 0 4 C0 2.68 0 1.36 0 0 Z M-2 4 C-1.34 4.33 -0.68 4.66 0 5 C-3.13347921 16.13347921 -3.13347921 16.13347921 -6.75 19.75 C-7.4925 20.1625 -8.235 20.575 -9 21 C-6.1460839 10.57612203 -6.1460839 10.57612203 -3 6 C-2.67 5.34 -2.34 4.68 -2 4 Z " fill="#2F78CA" transform="translate(221,109)"/>
<path d="M0 0 C2.49551158 2.49551158 3.07575992 4.66076626 4.1875 8 C4.55230469 9.0725 4.91710937 10.145 5.29296875 11.25 C6 14 6 14 5 16 C3.03833859 14.22516348 1.8268847 12.69704823 0.5 10.375 C-0.83729307 7.70243687 -0.83729307 7.70243687 -4 7 C-3.67 6.34 -3.34 5.68 -3 5 C-2.34 5.33 -1.68 5.66 -1 6 C-0.67 4.02 -0.34 2.04 0 0 Z " fill="#5B45CD" transform="translate(317,219)"/>
<path d="M0 0 C0.33 0 0.66 0 1 0 C1.02712066 1.43739513 1.04645067 2.87493863 1.0625 4.3125 C1.07410156 5.11300781 1.08570313 5.91351563 1.09765625 6.73828125 C1 9 1 9 0 12 C-0.66 12 -1.32 12 -2 12 C-2 13.65 -2 15.3 -2 17 C-2.99 17 -3.98 17 -5 17 C-4.35083537 10.99522721 -2.14204997 5.599219 0 0 Z " fill="#167EA4" transform="translate(135,339)"/>
<path d="M0 0 C1.23637074 3.96668945 0.35517821 6.10386264 -1 10 C-0.67 10.66 -0.34 11.32 0 12 C-0.75 14.5625 -0.75 14.5625 -2 17 C-2.99 17.33 -3.98 17.66 -5 18 C-4.42934122 11.58008874 -2.32655091 5.98410537 0 0 Z " fill="#1E70A7" transform="translate(183,208)"/>
<path d="M0 0 C0.84062397 3.09773244 1.08935201 5.78332751 1 9 C0.01 9.33 -0.98 9.66 -2 10 C-2.33 12.97 -2.66 15.94 -3 19 C-3.99 19.33 -4.98 19.66 -6 20 C-5.36757331 15.27497299 -4.08186437 11.09429803 -2.4375 6.625 C-2.20353516 5.98433594 -1.96957031 5.34367188 -1.72851562 4.68359375 C-1.15700381 3.1206839 -0.57915771 1.56009273 0 0 Z " fill="#186EA0" transform="translate(169,246)"/>
<path d="M0 0 C0.66 0.66 1.32 1.32 2 2 C1.57576756 3.46224799 1.13509755 4.91973412 0.6875 6.375 C0.44386719 7.18710938 0.20023438 7.99921875 -0.05078125 8.8359375 C-1 11 -1 11 -4 13 C-3.85831863 11.56208484 -3.71148957 10.1246763 -3.5625 8.6875 C-3.48128906 7.88699219 -3.40007812 7.08648437 -3.31640625 6.26171875 C-3 4 -3 4 -2 1 C-1.34 0.67 -0.68 0.34 0 0 Z " fill="#258ACC" transform="translate(188,198)"/>
<path d="M0 0 C0.66 0.66 1.32 1.32 2 2 C1.72810489 8.38953502 -0.70242085 14.0904127 -3 20 C-3.33 20 -3.66 20 -4 20 C-4 17.03 -4 14.06 -4 11 C-3.34 11 -2.68 11 -2 11 C-2 9.35 -2 7.7 -2 6 C-1.67 6 -1.34 6 -1 6 C-0.67 4.02 -0.34 2.04 0 0 Z " fill="#394BAF" transform="translate(273,116)"/>
<path d="M0 0 C3.26737303 3.26737303 3.95672896 6.83168198 4.125 11.375 C4.08375 12.24125 4.0425 13.1075 4 14 C3.01 14 2.02 14 1 14 C0.04738513 9.23692563 -0.08333357 4.8333472 0 0 Z " fill="#5F3AC3" transform="translate(337,274)"/>
<path d="M0 0 C2.64 0 5.28 0 8 0 C8 0.99 8 1.98 8 3 C9.32 3.33 10.64 3.66 12 4 C12 4.99 12 5.98 12 7 C7.39104317 5.68315519 3.85859765 3.84801255 0 1 C0 0.67 0 0.34 0 0 Z " fill="#454AB7" transform="translate(280,364)"/>
<path d="M0 0 C0.33 0.66 0.66 1.32 1 2 C1.66 2.33 2.32 2.66 3 3 C2.54625 3.391875 2.0925 3.78375 1.625 4.1875 C-0.27642919 6.30832487 -1.06204028 8.33042235 -2 11 C-2.66 11 -3.32 11 -4 11 C-4.99 14.465 -4.99 14.465 -6 18 C-7.18334564 14.44996307 -6.79896199 13.93695287 -5.25 10.6875 C-4.87875 9.89859375 -4.5075 9.1096875 -4.125 8.296875 C-1.36363636 2.65909091 -1.36363636 2.65909091 0 0 Z " fill="#1A8CBA" transform="translate(156,286)"/>
<path d="M0 0 C1 2 1 2 0.47094727 3.87939453 C0.17244873 4.62302246 -0.1260498 5.36665039 -0.43359375 6.1328125 C-0.75263672 6.93847656 -1.07167969 7.74414062 -1.40039062 8.57421875 C-1.91375977 9.83685547 -1.91375977 9.83685547 -2.4375 11.125 C-2.77587891 11.97449219 -3.11425781 12.82398438 -3.46289062 13.69921875 C-4.30176957 15.80232371 -5.14771125 17.90230155 -6 20 C-6.33 20 -6.66 20 -7 20 C-7 18.02 -7 16.04 -7 14 C-6.34 14 -5.68 14 -5 14 C-4.89042969 13.24074219 -4.78085937 12.48148438 -4.66796875 11.69921875 C-4.50941406 10.70535156 -4.35085938 9.71148437 -4.1875 8.6875 C-4.03667969 7.70136719 -3.88585937 6.71523437 -3.73046875 5.69921875 C-2.96563295 2.87300731 -2.24741238 1.8040872 0 0 Z " fill="#273D88" transform="translate(264,148)"/>
<path d="M0 0 C4.54805635 -0.17835515 7.8794254 0.00214565 12 2 C11.67 3.32 11.34 4.64 11 6 C6.49197399 4.74194623 3.5087188 3.09592835 0 0 Z " fill="#4154BD" transform="translate(262,354)"/>
<path d="M0 0 C2.73000671 2.73000671 3.51097906 5.91345467 4.6875 9.5 C4.92533203 10.18964844 5.16316406 10.87929688 5.40820312 11.58984375 C7.12393424 16.75213151 7.12393424 16.75213151 6 19 C5.71125 18.360625 5.4225 17.72125 5.125 17.0625 C4.17176549 14.84793921 4.17176549 14.84793921 2 14 C1.3671875 11.85546875 1.3671875 11.85546875 0.875 9.1875 C0.70742188 8.31480469 0.53984375 7.44210937 0.3671875 6.54296875 C0 4 0 4 0 0 Z " fill="#472390" transform="translate(351,312)"/>
<path d="M0 0 C3.37503669 1.1858237 5.64722731 2.27573689 8 5 C7.67 5.66 7.34 6.32 7 7 C4.69 7 2.38 7 0 7 C0 4.69 0 2.38 0 0 Z " fill="#485BD2" transform="translate(272,296)"/>
<path d="M0 0 C4.61513112 1.31860889 8.09897612 3.21355437 12 6 C11.01 6.495 11.01 6.495 10 7 C8.32459336 6.35561283 6.65816784 5.68753301 5 5 C4.01 5 3.02 5 2 5 C1.01 5 0.02 5 -1 5 C-0.67 3.35 -0.34 1.7 0 0 Z " fill="#3357B2" transform="translate(246,281)"/>
<path d="M0 0 C0.33 0 0.66 0 1 0 C1.08131463 1.43655854 1.13933559 2.8744483 1.1875 4.3125 C1.22230469 5.11300781 1.25710938 5.91351563 1.29296875 6.73828125 C0.93192481 9.52554044 0.06421626 10.18348969 -2 12 C-3.19027984 14.59915538 -3.19027984 14.59915538 -4 17 C-5.3274855 13.01754349 -3.99907829 10.55210457 -2.5625 6.8125 C-2.19801758 5.83120117 -2.19801758 5.83120117 -1.82617188 4.83007812 C-1.2256707 3.21696714 -0.61390797 1.6080565 0 0 Z " fill="#363E98" transform="translate(282,143)"/>
<path d="M0 0 C0.66 0 1.32 0 2 0 C5.00559652 5.00932754 5.29341888 8.32723489 5 14 C1.96047287 9.4407093 0 5.52837581 0 0 Z " fill="#3C48AF" transform="translate(272,256)"/>
<path d="M0 0 C2 3 2 3 2 5 C2.66 5 3.32 5 4 5 C5.60355101 8.50776784 6.22036864 11.14354879 6 15 C1.12832353 10.57120321 0.63288129 6.32881294 0 0 Z " fill="#653AC3" transform="translate(345,299)"/>
<path d="M0 0 C0.66 0.33 1.32 0.66 2 1 C1.649375 1.78375 1.29875 2.5675 0.9375 3.375 C0.628125 4.24125 0.31875 5.1075 0 6 C0.33 6.66 0.66 7.32 1 8 C0.06421005 10.35981813 -0.93347808 12.69631264 -2 15 C-2.33 15 -2.66 15 -3 15 C-3.3152595 9.01006953 -2.68219822 5.36439644 0 0 Z " fill="#21BDF7" transform="translate(152,297)"/>
<path d="M0 0 C4.59306496 1.4859916 7.43569245 3.85014682 11 7 C10.67 7.66 10.34 8.32 10 9 C8.33333333 8 6.66666667 7 5 6 C4.071875 5.505 3.14375 5.01 2.1875 4.5 C1.465625 4.005 0.74375 3.51 0 3 C0 2.01 0 1.02 0 0 Z " fill="#3849A6" transform="translate(259,86)"/>
<path d="M0 0 C1.90747183 2.86120775 3.00353706 5.35254993 4.1875 8.5625 C4.55230469 9.53316406 4.91710937 10.50382812 5.29296875 11.50390625 C6 14 6 14 5 16 C0.0693666 11.38747198 0.2229777 6.36601332 0 0 Z " fill="#4B2493" transform="translate(358,331)"/>
<path d="M0 0 C1.29212918 4.21787883 0.46211546 6.83297093 -1 11 C-2.625 13.9375 -2.625 13.9375 -4 16 C-5 14 -5 14 -4.00390625 10.7421875 C-3.53110016 9.4502948 -3.05028031 8.16131362 -2.5625 6.875 C-2.31951172 6.21628906 -2.07652344 5.55757812 -1.82617188 4.87890625 C-1.22421679 3.25008662 -0.61297588 1.62470425 0 0 Z " fill="#225897" transform="translate(211,131)"/>
<path d="M0 0 C1.32 0 2.64 0 4 0 C4 1.65 4 3.3 4 5 C4.66 5 5.32 5 6 5 C6.33 5.99 6.66 6.98 7 8 C4.08482708 6.92598892 2.22189824 6.22189824 0 4 C0 2.68 0 1.36 0 0 Z " fill="#17A1CC" transform="translate(136,385)"/>
<path d="M0 0 C0.99 0.33 1.98 0.66 3 1 C2.34 2.32 1.68 3.64 1 5 C0.67 5 0.34 5 0 5 C0 3.35 0 1.7 0 0 Z M-3 5 C-2.01 5.33 -1.02 5.66 0 6 C-0.3125 7.875 -0.3125 7.875 -1 10 C-1.99 10.66 -2.98 11.32 -4 12 C-3.67 9.69 -3.34 7.38 -3 5 Z " fill="#16C9F7" transform="translate(133,351)"/>
<path d="M0 0 C1.06671952 3.20015856 0.94845472 4.88544294 0.5625 8.1875 C0.46066406 9.08855469 0.35882813 9.98960937 0.25390625 10.91796875 C0.17011719 11.60503906 0.08632812 12.29210937 0 13 C-1.51171875 11.75390625 -1.51171875 11.75390625 -3 10 C-3.14453125 8.02734375 -3.14453125 8.02734375 -2.8125 5.9375 C-2.71582031 5.24527344 -2.61914062 4.55304688 -2.51953125 3.83984375 C-2 2 -2 2 0 0 Z " fill="#19C2F7" transform="translate(142,326)"/>
<path d="M0 0 C5.31027254 1.46032495 9.46330032 3.98320986 14 7 C13.01 7.495 13.01 7.495 12 8 C9.64018187 7.06421005 7.30368736 6.06652192 5 5 C5 4.34 5 3.68 5 3 C3.68 3 2.36 3 1 3 C0.67 2.01 0.34 1.02 0 0 Z " fill="#2E449A" transform="translate(258,288)"/>
<path d="M0 0 C0.99 0.33 1.98 0.66 3 1 C1.27256146 4.61939504 -0.47650757 7.87567603 -3 11 C-2.88590407 9.54077307 -2.75834456 8.08259402 -2.625 6.625 C-2.55539063 5.81289062 -2.48578125 5.00078125 -2.4140625 4.1640625 C-2 2 -2 2 0 0 Z " fill="#3794F2" transform="translate(214,128)"/>
<path d="M0 0 C2.31 0 4.62 0 7 0 C7 0.99 7 1.98 7 3 C7.9590625 3.1546875 7.9590625 3.1546875 8.9375 3.3125 C9.618125 3.539375 10.29875 3.76625 11 4 C11.33 4.99 11.66 5.98 12 7 C7.69235185 5.43358249 3.93828536 3.31663844 0 1 C0 0.67 0 0.34 0 0 Z " fill="#443CA1" transform="translate(297,374)"/>
<path d="M0 0 C3.23897677 2.58573776 3.79301935 5.22622856 4.6875 9.1875 C4.93886719 10.27417969 5.19023437 11.36085938 5.44921875 12.48046875 C5.63097656 13.31191406 5.81273437 14.14335937 6 15 C5.34 15 4.68 15 4 15 C1.32820751 10.22894198 0 5.46088946 0 0 Z " fill="#8241EA" transform="translate(361,344)"/>
<path d="M0 0 C0.33 0 0.66 0 1 0 C0.45144652 4.571279 -0.41744803 8.67435795 -2 13 C-2.99 13 -3.98 13 -5 13 C-4.54554036 11.58208592 -4.08625056 10.16571954 -3.625 8.75 C-3.24214844 7.56664062 -3.24214844 7.56664062 -2.8515625 6.359375 C-2.04826333 4.13372042 -1.10288338 2.09068328 0 0 Z " fill="#31A3F1" transform="translate(190,345)"/>
<path d="M0 0 C1.65 0 3.3 0 5 0 C5.33 0.99 5.66 1.98 6 3 C6.99 3.33 7.98 3.66 9 4 C9 4.66 9 5.32 9 6 C5.59687262 4.94124926 2.98646769 3.99097846 0 2 C0 1.34 0 0.68 0 0 Z " fill="#3668C2" transform="translate(226,332)"/>
<path d="M0 0 C0.66 0.66 1.32 1.32 2 2 C1.625 5.125 1.625 5.125 1 8 C0.34 8 -0.32 8 -1 8 C-1 8.66 -1 9.32 -1 10 C-1.66 10 -2.32 10 -3 10 C-3 8.35 -3 6.7 -3 5 C-2.01 4.67 -1.02 4.34 0 4 C0 2.68 0 1.36 0 0 Z " fill="#4367D0" transform="translate(255,166)"/>
<path d="M0 0 C5.66153846 1.47692308 5.66153846 1.47692308 7.375 4.125 C7.58125 4.74375 7.7875 5.3625 8 6 C5.69 5.67 3.38 5.34 1 5 C1 4.34 1 3.68 1 3 C0.01 2.67 -0.98 2.34 -2 2 C-1.34 2 -0.68 2 0 2 C0 1.34 0 0.68 0 0 Z " fill="#4E72F7" transform="translate(262,91)"/>
<path d="M0 0 C-4.2827388 2.8551592 -7.14458058 3.11672494 -12.1875 3.0625 C-13.81751953 3.04896484 -13.81751953 3.04896484 -15.48046875 3.03515625 C-16.31191406 3.02355469 -17.14335937 3.01195312 -18 3 C-18 2.67 -18 2.34 -18 2 C-17.06027344 1.90912109 -17.06027344 1.90912109 -16.1015625 1.81640625 C-14.87566406 1.69072266 -14.87566406 1.69072266 -13.625 1.5625 C-12.81289062 1.48128906 -12.00078125 1.40007812 -11.1640625 1.31640625 C-1.91761364 -0.03551136 -1.91761364 -0.03551136 0 0 Z " fill="#146B97" transform="translate(167,393)"/>
<path d="M0 0 C1.8125 0.5 1.8125 0.5 4 2 C5.37162003 4.56072611 6.39748699 7.15636384 7 10 C6.67 10.99 6.34 11.98 6 13 C4 11 4 11 3.5625 8.625 C2.93705771 5.70626933 1.82923357 4.30642493 0 2 C0 1.34 0 0.68 0 0 Z " fill="#8142F0" transform="translate(352,325)"/>
<path d="M0 0 C1.29229206 4.19071855 0.5239382 6.88536687 -1 11 C-1.99 11.66 -2.98 12.32 -4 13 C-3.27991594 8.39146203 -1.68704061 4.32762591 0 0 Z " fill="#146B8D" transform="translate(144,315)"/>
<path d="M0 0 C0.99 0 1.98 0 3 0 C3.25 2.8125 3.25 2.8125 3 6 C1 7.875 1 7.875 -1 9 C-1.33 7.35 -1.66 5.7 -2 4 C-1.34 4 -0.68 4 0 4 C0 2.68 0 1.36 0 0 Z " fill="#3494FB" transform="translate(218,260)"/>
<path d="M0 0 C0.95837449 3.04626176 1.01658162 5.09213636 0.25 8.1875 C0.01023438 9.22970703 0.01023438 9.22970703 -0.234375 10.29296875 C-0.61335937 11.13794922 -0.61335937 11.13794922 -1 12 C-1.99 12.33 -2.98 12.66 -4 13 C-3.52343588 11.20763933 -3.04366502 9.41613103 -2.5625 7.625 C-2.29566406 6.62726563 -2.02882812 5.62953125 -1.75390625 4.6015625 C-1 2 -1 2 0 0 Z " fill="#1F649F" transform="translate(191,186)"/>
<path d="M0 0 C0.33 0 0.66 0 1 0 C1 2.64 1 5.28 1 8 C0.01 8.495 0.01 8.495 -1 9 C-2.13350534 11.01669827 -2.13350534 11.01669827 -3 13 C-4.23593891 9.29218328 -3.5678132 8.32489747 -2.0625 4.8125 C-1.68222656 3.91144531 -1.30195313 3.01039063 -0.91015625 2.08203125 C-0.60980469 1.39496094 -0.30945313 0.70789063 0 0 Z " fill="#2F4398" transform="translate(268,182)"/>
<path d="M0 0 C0.66 0 1.32 0 2 0 C2.99 3.63 3.98 7.26 5 11 C0.07692308 6.81538462 0.07692308 6.81538462 -0.3125 2.6875 C-0.209375 1.800625 -0.10625 0.91375 0 0 Z " fill="#3F41A3" transform="translate(289,144)"/>
<path d="M0 0 C0.75 1.75 0.75 1.75 1 4 C-0.9375 6.25 -0.9375 6.25 -3 8 C-3.99 7.67 -4.98 7.34 -6 7 C-5.34 6.67 -4.68 6.34 -4 6 C-3.34786708 3.97536745 -3.34786708 3.97536745 -3 2 C-2.01 2 -1.02 2 0 2 C0 1.34 0 0.68 0 0 Z " fill="#7139D0" transform="translate(363,382)"/>
<path d="M0 0 C0 0.66 0 1.32 0 2 C-0.66 2 -1.32 2 -2 2 C-2 4.31 -2 6.62 -2 9 C-2.99 9.495 -2.99 9.495 -4 10 C-4.93423645 6.98968256 -5.04449911 6.13349732 -4 3 C-4.66 2.67 -5.32 2.34 -6 2 C-2.25 0 -2.25 0 0 0 Z " fill="#2FA0F8" transform="translate(201,319)"/>
<path d="M0 0 C-0.4640625 0.8353125 -0.4640625 0.8353125 -0.9375 1.6875 C-2.05761821 4.12540433 -2.56037364 6.36224186 -3 9 C-3.99 9 -4.98 9 -6 9 C-5.6875 5.625 -5.6875 5.625 -5 2 C-2 0 -2 0 0 0 Z " fill="#24ADF1" transform="translate(175,243)"/>
<path d="M0 0 C3.99500618 1.3697164 6.80009492 3.25722422 10 6 C8.35 6 6.7 6 5 6 C5 5.34 5 4.68 5 4 C3.35 3.67 1.7 3.34 0 3 C0 2.01 0 1.02 0 0 Z " fill="#24539C" transform="translate(226,269)"/>
<path d="M0 0 C1.5625 1.1875 1.5625 1.1875 3 3 C2.6875 5.6875 2.6875 5.6875 2 8 C1.01 8 0.02 8 -1 8 C-1.125 2.25 -1.125 2.25 0 0 Z " fill="#20B7FA" transform="translate(164,264)"/>
<path d="M0 0 C4.26086957 6.39130435 4.26086957 6.39130435 3.625 10.3125 C3.41875 10.869375 3.2125 11.42625 3 12 C3 11.34 3 10.68 3 10 C2.34 10 1.68 10 1 10 C-0.60725635 6.78548731 -0.05748185 3.56387464 0 0 Z " fill="#4A33A2" transform="translate(323,235)"/>
<path d="M0 0 C0.66 0.66 1.32 1.32 2 2 C1.64700993 5.44165321 0.95418308 7.06872538 -1 10 C-1.66 10 -2.32 10 -3 10 C-2.01 6.7 -1.02 3.4 0 0 Z " fill="#339EF5" transform="translate(204,154)"/>
<path d="M0 0 C0.99 0.99 1.98 1.98 3 3 C2.67 3.66 2.34 4.32 2 5 C1.01 5.33 0.02 5.66 -1 6 C-1.66 6.66 -2.32 7.32 -3 8 C-3.36923077 3.44615385 -3.36923077 3.44615385 -1.5 1.1875 C-1.005 0.795625 -0.51 0.40375 0 0 Z " fill="#5C65F2" transform="translate(286,140)"/>
<path d="M0 0 C3.2542015 2.83430453 4.5206753 4.68607774 5 9 C2.5 7.875 2.5 7.875 0 6 C-0.3125 2.8125 -0.3125 2.8125 0 0 Z " fill="#3646A3" transform="translate(270,95)"/>
<path d="M0 0 C0.66 0 1.32 0 2 0 C2.99 2.31 3.98 4.62 5 7 C3.68 6.67 2.36 6.34 1 6 C1 5.34 1 4.68 1 4 C0.34 4 -0.32 4 -1 4 C-0.67 2.68 -0.34 1.36 0 0 Z " fill="#1BC4F8" transform="translate(141,386)"/>
<path d="M0 0 C0.33 0 0.66 0 1 0 C1 2.97 1 5.94 1 9 C-0.32 9.33 -1.64 9.66 -3 10 C-2.01 6.7 -1.02 3.4 0 0 Z " fill="#187DA8" transform="translate(148,304)"/>
<path d="M0 0 C2 1 2 1 4 4 C3.34 4 2.68 4 2 4 C1.67 4.66 1.34 5.32 1 6 C-0.32 5.67 -1.64 5.34 -3 5 C-3 4.01 -3 3.02 -3 2 C-2.01 2 -1.02 2 0 2 C0 1.34 0 0.68 0 0 Z " fill="#5F5FF8" transform="translate(291,305)"/>
<path d="M0 0 C2 2 2 2 2 6 C-0.97 5.505 -0.97 5.505 -4 5 C-2.68 3.35 -1.36 1.7 0 0 Z " fill="#3C8BFC" transform="translate(230,273)"/>
<path d="M0 0 C0.33 0 0.66 0 1 0 C0.125 6.75 0.125 6.75 -1 9 C-1.66 9 -2.32 9 -3 9 C-2.67 6.69 -2.34 4.38 -2 2 C-1.34 2 -0.68 2 0 2 C0 1.34 0 0.68 0 0 Z " fill="#4658C2" transform="translate(272,174)"/>
<path d="M0 0 C2.94586829 4.41880243 3.0985616 6.67767339 3 12 C2.67 11.34 2.34 10.68 2 10 C1.34 10 0.68 10 0 10 C0 6.7 0 3.4 0 0 Z " fill="#3E3CA5" transform="translate(294,155)"/>
<path d="M0 0 C0.66 0.33 1.32 0.66 2 1 C1.67 2.32 1.34 3.64 1 5 C0.34 5 -0.32 5 -1 5 C-1.66 6.98 -2.32 8.96 -3 11 C-3.33 10.34 -3.66 9.68 -4 9 C-3.22265625 6.8359375 -3.22265625 6.8359375 -2.0625 4.375 C-1.68222656 3.55773437 -1.30195313 2.74046875 -0.91015625 1.8984375 C-0.60980469 1.27195312 -0.30945313 0.64546875 0 0 Z " fill="#204C8D" transform="translate(224,97)"/>
<path d="M0 0 C3.77545388 1.09068668 6.47043472 1.9083091 9 5 C7.68 5.33 6.36 5.66 5 6 C4.67 5.01 4.34 4.02 4 3 C3.01 3 2.02 3 1 3 C0.67 2.01 0.34 1.02 0 0 Z " fill="#313A8F" transform="translate(279,300)"/>
<path d="M0 0 C0.66 0.66 1.32 1.32 2 2 C1.01 3.485 1.01 3.485 0 5 C1.32 5.33 2.64 5.66 4 6 C1.53721199 7.231394 -0.2795055 7.07159196 -3 7 C-2.38722388 4.03824877 -1.74627478 2.61941217 0 0 Z " fill="#1E5296" transform="translate(222,262)"/>
<path d="M0 0 C2.45823172 3.68734758 3.01242616 6.69699971 4 11 C2 10 2 10 0 8 C-0.36933645 5.24627091 -0.18336678 2.79634339 0 0 Z " fill="#4835A6" transform="translate(319,224)"/>
<path d="M0 0 C2.45823172 3.68734758 3.01242616 6.69699971 4 11 C3.01 10.67 2.02 10.34 1 10 C-0.1577506 6.52674819 -0.06866652 3.63932552 0 0 Z " fill="#4536A2" transform="translate(311,202)"/>
<path d="M0 0 C1.98 0 3.96 0 6 0 C6.66 1.65 7.32 3.3 8 5 C4.62496331 3.8141763 2.35277269 2.72426311 0 0 Z " fill="#334FAB" transform="translate(254,349)"/>
<path d="M0 0 C2.02350324 3.03525486 2.32124018 4.19426202 2.625 7.6875 C2.69976562 8.49574219 2.77453125 9.30398438 2.8515625 10.13671875 C2.90054687 10.75160156 2.94953125 11.36648438 3 12 C0.71046511 9.71046511 0.47586642 8.54484795 -0.1875 5.4375 C-0.36667969 4.63183594 -0.54585938 3.82617188 -0.73046875 2.99609375 C-0.81941406 2.33738281 -0.90835937 1.67867188 -1 1 C-0.67 0.67 -0.34 0.34 0 0 Z " fill="#353F99" transform="translate(278,269)"/>
<path d="M0 0 C0 1.32 0 2.64 0 4 C-4.75 3.25 -4.75 3.25 -7 1 C-2.25 0 -2.25 0 0 0 Z " fill="#5342C3" transform="translate(316,380)"/>
<path d="M0 0 C5.53846154 0.61538462 5.53846154 0.61538462 7.875 2.5625 C8.431875 3.2740625 8.431875 3.2740625 9 4 C8.01 4.495 8.01 4.495 7 5 C4.5249829 3.88568235 2.32116581 2.41849022 0 1 C0 0.67 0 0.34 0 0 Z " fill="#2E52A3" transform="translate(238,340)"/>
<path d="M0 0 C0 0.33 0 0.66 0 1 C-6.0546875 1.1953125 -6.0546875 1.1953125 -8 1 C-8.66 0.34 -9.32 -0.32 -10 -1 C-5.94568308 -2.15837626 -3.78187881 -1.83691257 0 0 Z " fill="#4269D3" transform="translate(260,348)"/>
<path d="M0 0 C0.66 0.66 1.32 1.32 2 2 C1.67028521 5.29714793 1.3773161 6.6226839 -1 9 C-0.67 6.03 -0.34 3.06 0 0 Z " fill="#267CBC" transform="translate(193,180)"/>
<path d="M0 0 C0.66 0 1.32 0 2 0 C2 1.98 2 3.96 2 6 C1.01 6.33 0.02 6.66 -1 7 C-0.67 4.69 -0.34 2.38 0 0 Z " fill="#2B71BA" transform="translate(205,147)"/>
</svg>
