<?xml version="1.0" encoding="UTF-8"?>
<svg version="1.1" xmlns="http://www.w3.org/2000/svg" width="691" height="712">
<path d="M0 0 C228.03 0 456.06 0 691 0 C691 234.96 691 469.92 691 712 C462.97 712 234.94 712 0 712 C0 477.04 0 242.08 0 0 Z " fill="#080808" transform="translate(0,0)"/>
<path d="M0 0 C9.39095067 6.1462843 15.79609706 14.43149508 18.19140625 25.4921875 C20.00646203 40.71468361 14.40299507 53.6864312 8.91967773 67.50146484 C6.70200578 73.09841804 4.6584354 78.74012041 2.69140625 84.4296875 C0.52064534 90.70257007 -1.68758832 96.95610028 -3.99609375 103.1796875 C-7.22059816 111.87466616 -10.39376924 120.58786298 -13.55859375 129.3046875 C-17.4574735 140.04044372 -21.37142073 150.77040258 -25.30859375 161.4921875 C-29.64025945 173.29065647 -33.9512772 185.09645395 -38.23583984 196.91210938 C-40.58286432 203.38275872 -42.93666499 209.85059905 -45.3195343 216.30815125 C-46.42765118 219.31224173 -47.53159951 222.31785675 -48.63528442 225.32357788 C-49.16013237 226.74932886 -49.68699121 228.17434148 -50.21603394 229.59854126 C-52.89826536 236.82096051 -55.39315938 243.89879841 -56.80859375 251.4921875 C-55.7405249 252.10139038 -55.7405249 252.10139038 -54.65087891 252.72290039 C-32.1066249 265.58498678 -9.60150249 278.51098 12.80371094 291.61425781 C20.88281777 296.3309303 29.01478389 300.94694742 37.19140625 305.4921875 C35.35212733 297.31122815 32.40526618 289.6218359 29.38354492 281.82519531 C26.3984946 274.10366556 23.63068629 266.32074934 20.9296875 258.49609375 C16.69822698 246.26507459 12.24154098 234.11479932 7.79003906 221.96264648 C6.82429365 219.32621964 5.85934079 216.68950383 4.89453125 214.05273438 C4.577724 213.18873016 4.26091675 212.32472595 3.93450928 211.43453979 C3.3002802 209.69924507 2.66992445 207.96252962 2.04351807 206.22439575 C0.47340358 201.88615295 -1.16166471 197.59852176 -2.95019531 193.34521484 C-9.04627705 178.58815884 -9.04627705 178.58815884 -6.00390625 171.06787109 C-5.60945312 170.21789551 -5.215 169.36791992 -4.80859375 168.4921875 C-4.07727129 166.40931974 -3.35909424 164.32180191 -2.65234375 162.23046875 C-1.87549494 160.08694149 -1.09420319 157.94501948 -0.30859375 155.8046875 C0.08199219 154.72896484 0.47257813 153.65324219 0.875 152.54492188 C2.4663585 148.17002554 4.06978346 143.80031088 5.71484375 139.4453125 C7.26234068 135.33828962 8.72680998 131.2026362 10.19824219 127.06787109 C13.97602765 116.46532647 17.92684864 105.95386713 22.08300781 95.49414062 C24.68094805 88.91515087 27.01376659 82.30203308 29.12109375 75.55078125 C30.23379086 72.37106652 31.62380918 69.47062193 33.19140625 66.4921875 C35.49150844 69.94234078 36.73451846 73.48733774 38.09765625 77.3671875 C38.37841003 78.15526291 38.65916382 78.94333832 38.94842529 79.7552948 C39.5518629 81.45012871 40.15350575 83.14560249 40.75354004 84.84164429 C42.33376762 89.30759203 43.92712639 93.76885157 45.51953125 98.23046875 C45.83613708 99.11849686 46.15274292 100.00652496 46.47894287 100.92146301 C49.07604998 108.19591504 51.73931332 115.44350902 54.44140625 122.6796875 C58.29411801 133.00801573 62.02412228 143.37644198 65.71484375 153.76367188 C67.90616364 159.92239736 70.12371755 166.06736686 72.44140625 172.1796875 C74.43088134 177.42720746 76.338031 182.69563701 78.19140625 187.9921875 C81.4885704 197.40990019 85.00383907 206.74039447 88.55078125 216.06640625 C93.17911252 228.30028189 97.54125526 240.6278048 101.92871094 252.94970703 C106.98569245 267.13702369 112.1053307 281.30162001 117.27883911 295.44683838 C117.75429902 296.74708385 118.22931073 298.04749332 118.7038269 299.3480835 C121.10141727 305.91651 123.52170983 312.46264526 126.20581055 318.92016602 C127.06143454 321.15301189 127.83108399 323.38680698 128.57958984 325.65698242 C130.22964848 330.65735 132.02602539 335.59759902 133.84375 340.5390625 C134.54503976 342.45568604 135.24620781 344.37235411 135.94726562 346.2890625 C137.03627213 349.26223865 138.12627831 352.23503678 139.21850586 355.20703125 C153.48065186 394.03874537 153.48065186 394.03874537 146.19140625 411.4921875 C144.49696876 414.51510409 142.57344154 416.98274102 140.19140625 419.4921875 C139.61648438 420.10707031 139.0415625 420.72195313 138.44921875 421.35546875 C130.69251833 428.87077807 121.85240789 431.96956509 111.19140625 432.1171875 C98.36687264 431.90117024 88.87796018 425.9315948 78.1875 419.484375 C72.38197459 415.98804023 66.50469314 412.61864358 60.62890625 409.2421875 C52.17429771 404.37521729 43.73613558 399.48173105 35.31640625 394.5546875 C26.04585619 389.13244988 16.73203767 383.78894648 7.40093994 378.47195435 C-1.67638011 373.29839963 -10.71430908 368.06076596 -19.73046875 362.78125 C-27.39433306 358.3005251 -35.09543489 353.88721482 -42.80859375 349.4921875 C-57.21290288 341.28385232 -71.60234623 333.03986763 -85.80859375 324.4921875 C-85.95554687 325.16121094 -86.1025 325.83023437 -86.25390625 326.51953125 C-87.73455799 332.85910337 -89.57352849 338.98710799 -91.74609375 345.1171875 C-92.10695068 346.13607056 -92.10695068 346.13607056 -92.47509766 347.17553711 C-93.80583053 350.87059464 -95.21599534 354.52467383 -96.69213867 358.1640625 C-98.66250163 363.07728141 -100.48806821 368.03136976 -102.26953125 373.015625 C-102.91242041 374.79699774 -103.55566049 376.57824387 -104.19921875 378.359375 C-105.19194863 381.11141021 -106.18250639 383.86414462 -107.16699219 386.61914062 C-119.55490714 421.24589989 -119.55490714 421.24589989 -133.80859375 428.4921875 C-134.73865234 428.97365234 -134.73865234 428.97365234 -135.6875 429.46484375 C-144.4961724 433.17103664 -157.31736641 433.16100693 -166.30859375 430.0546875 C-175.86633593 425.37468961 -183.9618864 416.76590362 -187.8359375 406.8671875 C-193.87070002 387.28897177 -183.79029747 368.39341484 -176.93359375 350.2421875 C-175.55829502 346.59223155 -174.18585685 342.94121669 -172.81640625 339.2890625 C-172.47971924 338.39124054 -172.14303223 337.49341858 -171.79614258 336.56838989 C-169.18883616 329.58317297 -166.70150513 322.56036775 -164.25595093 315.51712036 C-161.76871841 308.35394439 -159.18417318 301.23098387 -156.55859375 294.1171875 C-156.08974696 292.84267621 -155.62108366 291.5680974 -155.15258789 290.29345703 C-153.94554156 287.01022366 -152.73697712 283.72755179 -151.52789307 280.44506836 C-145.52211 264.13950749 -139.5475472 247.82463725 -133.71850586 231.45483398 C-124.16342382 204.62832795 -114.48806262 177.84460724 -104.4375 151.19921875 C-100.71519495 141.32864424 -97.05494846 131.44981072 -93.6081543 121.47949219 C-90.74512138 113.23175193 -87.72921196 105.04088999 -84.71337891 96.84817505 C-81.58393352 88.34641798 -78.48536695 79.8347073 -75.43359375 71.3046875 C-71.69065878 60.86209744 -67.85496763 50.45484963 -63.99609375 40.0546875 C-63.71719299 39.30184479 -63.43829224 38.54900208 -63.15093994 37.77334595 C-61.84040633 34.23755783 -60.52486096 30.70382697 -59.19555664 27.17504883 C-58.34946356 24.92838203 -57.5107813 22.67888313 -56.68530273 20.42456055 C-53.26565111 11.35672973 -46.66875682 2.88883446 -37.80859375 -1.5078125 C-24.254118 -6.84158673 -13.09866605 -7.03210722 0 0 Z " fill="#467EFE" transform="translate(368.80859375,123.5078125)"/>
<path d="M0 0 C1.74627478 2.61941217 2.38722388 4.03824877 3 7 C2.34 7 1.68 7 1 7 C1 6.34 1 5.68 1 5 C0.01 5.33 -0.98 5.66 -2 6 C-1.34 4.02 -0.68 2.04 0 0 Z " fill="#4950E5" transform="translate(402,190)"/>
</svg>
